<?xml version="1.0" encoding="iso-8859-1"?>
<!-- Uploaded to: SVG Repo, www.svgrepo.com, Generator: SVG Repo Mixer Tools -->
<svg height="800px" width="800px" version="1.1" id="Layer_1" xmlns="http://www.w3.org/2000/svg" xmlns:xlink="http://www.w3.org/1999/xlink" 
	 viewBox="0 0 511.994 511.994" xml:space="preserve">
<g>
	<g>
		<path style="fill:#D0E8F9;" d="M386.166,511.994H177.895l37.602-15.039c29.705-11.88,49.178-40.648,49.178-72.643v-94.555h34.712
			v94.555c0,31.996,19.473,60.763,49.178,72.643L386.166,511.994z"/>
		<path style="fill:#D0E8F9;" d="M82.438,104.129l158.269,165.81c15.386,16.115,23.969,37.541,23.969,59.817h34.712
			c0-22.276,8.582-43.702,23.969-59.817l158.269-165.81H82.438z"/>
	</g>
	<path style="fill:#25B99A;" d="M360.132,199.587c-26.008,23.3-62.69,23.057-77.85,0c-17.833-23.135-50.766-23.144-73.633,0
		c-6.847,6.422-14.319,10.986-21.877,13.841l53.934,56.511c15.386,16.115,23.969,37.541,23.969,59.817h34.712
		c0-22.276,8.582-43.702,23.969-59.817l83.378-87.352C390.913,181.146,373.392,186.744,360.132,199.587"/>
	<path style="fill:#FFD06C;" d="M82.438,104.129h69.424c0-33.549-27.197-60.746-60.746-60.746S30.37,70.58,30.37,104.129
		s27.197,60.746,60.746,60.746c14.006,0,26.867-4.79,37.142-12.748L82.438,104.129z"/>
	<path style="fill:#E1705C;" d="M299.387,260.337c-0.972,0-1.97-0.174-2.942-0.521c-4.504-1.623-6.847-6.587-5.224-11.099
		l78.102-216.949c0.937-2.595,3.037-4.582,5.675-5.372l86.78-26.034c4.599-1.362,9.433,1.232,10.804,5.814
		c1.371,4.591-1.232,9.433-5.823,10.813L384.17,41.765l-76.618,212.827C306.277,258.133,302.945,260.337,299.387,260.337"/>
</g>
</svg>