<svg xmlns="http://www.w3.org/2000/svg" width="512" height="512" viewBox="0 0 512 512" shape-rendering="geometricPrecision" text-rendering="geometricPrecision" image-rendering="optimizeQuality" fill-rule="evenodd" clip-rule="evenodd">
<path d="M311.5 63.5c40.668-.167 81.335 0 122 .5 7.167 1.833 11.667 6.333 13.5 13.5a3658.67 3658.67 0 010 121c-2.386 8.386-7.886 13.22-16.5 14.5-12.927 1.798-21.427-3.368-25.5-15.5l-1-60L288.5 253c-15.14 6.5-25.973 2.333-32.5-12.5-1.331-6.749-.331-13.082 3-19L373.5 107l-60-1c-12.132-4.073-17.298-12.573-15.5-25.5 1.382-8.208 5.882-13.875 13.5-17z" fill="#4fa053" opacity=".983"/>
<path d="M119.5 84.5c33.002-.167 66.002 0 99 .5 8.5 1.833 13.667 7 15.5 15.5 2.5 12.501-2 21.334-13.5 26.5-30.998.5-61.998.667-93 .5v256h256c-.167-31.002 0-62.002.5-93 5.13-11.483 13.963-15.983 26.5-13.5 8.056 1.722 13.223 6.556 15.5 14.5a2499 2499 0 010 100c-4.286 19.286-16.119 30.786-35.5 34.5-90 .667-180 .667-270 0-19.381-3.714-31.215-15.214-35.5-34.5-.667-90.667-.667-181.333 0-272 4.348-18.847 15.848-30.514 34.5-35z" fill="#4fa053" opacity=".988"/>
</svg>
