<?xml version="1.0" encoding="iso-8859-1"?>
<!-- Uploaded to: SVG Repo, www.svgrepo.com, Generator: SVG Repo Mixer Tools -->
<svg height="800px" width="800px" version="1.1" id="Layer_1" xmlns="http://www.w3.org/2000/svg" xmlns:xlink="http://www.w3.org/1999/xlink" 
	 viewBox="0 0 512 512" xml:space="preserve">
<path style="fill:#E6563A;" d="M367.933,39.375l-88.898,35.456v170.081c0,11.17-8.98,20.258-20.136,20.395
	c-0.095,0.014-0.177,0.014-0.272,0.014c-11.265,0-20.408-9.143-20.408-20.408V60.994c0-0.041,0.014-0.082,0.014-0.136
	c0-0.476,0.027-0.952,0.068-1.429c0.014-0.218,0.027-0.422,0.041-0.639c0.054-0.395,0.122-0.776,0.19-1.17
	c0.041-0.286,0.082-0.585,0.136-0.857c0.054-0.272,0.136-0.517,0.204-0.776c0.095-0.395,0.19-0.803,0.313-1.184
	c0.041-0.122,0.095-0.231,0.136-0.354c0.163-0.503,0.354-1.02,0.558-1.51c0.014-0.027,0.041-0.068,0.054-0.109
	c0.245-0.558,0.503-1.102,0.803-1.633c0.082-0.15,0.177-0.286,0.259-0.435c0.231-0.408,0.476-0.816,0.748-1.211
	c0.272-0.408,0.571-0.803,0.871-1.184c0.095-0.122,0.19-0.245,0.286-0.367c0.395-0.476,0.816-0.939,1.252-1.374
	c0.014-0.027,0.027-0.041,0.054-0.068c0.381-0.381,0.789-0.735,1.211-1.088c0.082-0.082,0.163-0.163,0.258-0.231
	c0.313-0.272,0.667-0.517,1.007-0.762c0.204-0.15,0.395-0.299,0.612-0.449c0.245-0.163,0.517-0.313,0.776-0.463
	c0.327-0.204,0.653-0.408,0.993-0.585c0.19-0.109,0.395-0.19,0.599-0.286c0.422-0.218,0.844-0.422,1.279-0.599
	c0.054-0.014,0.082-0.041,0.136-0.054L352.817,1.457c9.687-3.864,20.585,0.218,25.456,9.156c0.395,0.721,0.748,1.469,1.061,2.245
	C383.496,23.321,378.394,35.199,367.933,39.375z"/>
<path style="fill:#D9472B;" d="M367.933,39.375l-88.898,35.456v170.081c0,11.17-8.98,20.258-20.136,20.395
	c-1.442-2.789-2.258-5.959-2.258-9.32V72.069c0-0.054,0.014-0.095,0.014-0.136c0-0.476,0.041-0.966,0.068-1.442
	c0.027-0.204,0.027-0.422,0.054-0.626c0.041-0.395,0.109-0.789,0.177-1.17c0.041-0.299,0.082-0.585,0.136-0.871
	c0.054-0.259,0.136-0.517,0.204-0.776c0.095-0.395,0.19-0.789,0.313-1.184c0.041-0.109,0.095-0.231,0.136-0.354
	c0.163-0.503,0.354-1.007,0.558-1.497c0.014-0.041,0.041-0.082,0.054-0.109c0.245-0.558,0.503-1.116,0.803-1.646
	c0.082-0.136,0.177-0.286,0.259-0.422c0.245-0.408,0.476-0.83,0.748-1.224c0.272-0.408,0.571-0.789,0.884-1.17
	c0.095-0.122,0.177-0.259,0.272-0.367c0.395-0.476,0.816-0.939,1.252-1.388c0.014-0.014,0.041-0.041,0.054-0.054
	c0.381-0.381,0.789-0.748,1.211-1.102c0.082-0.068,0.163-0.15,0.259-0.231c0.327-0.258,0.667-0.503,1.007-0.748
	c0.204-0.15,0.408-0.313,0.612-0.449c0.259-0.177,0.517-0.313,0.776-0.476c0.327-0.204,0.653-0.408,0.993-0.585
	c0.19-0.095,0.395-0.19,0.599-0.286c0.422-0.204,0.844-0.408,1.279-0.585c0.054-0.027,0.095-0.041,0.136-0.068l108.775-42.49
	c0.395,0.721,0.748,1.469,1.061,2.245C383.496,23.321,378.394,35.199,367.933,39.375z"/>
<path style="fill:#88CC2A;" d="M395.387,241.905c0,0.136,0,0.299,0.014,0.517v234.476c0,19.347-15.755,35.102-35.102,35.102H151.701
	c-19.347,0-35.102-15.755-35.102-35.102V238.735c0.15-0.422,0.259-0.844,0.34-1.252c2.014-11.088,12.653-18.435,23.728-16.422
	l16.748,3.048l23.129,4.218c13.905,2.531,28.054,2.844,42.054,0.925L256,224.681l0.639-0.082l32.476-4.463
	c9.973-1.374,20.136-1.878,30.204-1.497l35.265,1.32l21.17,0.789c11.007,0.408,19.646,9.456,19.646,20.381
	C395.401,241.388,395.401,241.647,395.387,241.905z"/>
<path style="fill:#7FB335;" d="M395.387,241.905c0,0.136,0,0.299,0.014,0.517v234.476c0,19.347-15.755,35.102-35.102,35.102h-103.66
	V224.599l32.476-4.463c9.973-1.374,20.136-1.878,30.204-1.497l35.265,1.32l21.17,0.789c11.007,0.408,19.646,9.456,19.646,20.381
	C395.401,241.388,395.401,241.647,395.387,241.905z"/>
<path style="fill:#CCE6FF;" d="M360.299,102.913H151.701c-19.347,0-35.102,15.741-35.102,35.102v338.883
	c0,19.347,15.755,35.102,35.102,35.102h208.598c19.347,0,35.102-15.755,35.102-35.102V138.015
	C395.401,118.654,379.647,102.913,360.299,102.913z M354.585,471.184h-197.17V143.729h197.17V471.184z"/>
<path style="fill:#BDDEFF;" d="M395.401,138.015v338.883c0,19.347-15.755,35.102-35.102,35.102h-103.66v-40.816h97.945V143.729
	h-97.945v-40.816h103.66C379.647,102.913,395.401,118.654,395.401,138.015z"/>
</svg>