<svg xmlns="http://www.w3.org/2000/svg" xml:space="preserve" style="enable-background:new 0 0 500 500" viewBox="0 0 500 500"><path d="M298.401 247.742a2 2 0 0 1-1.944-2.481c7.357-29.737 3.732-55.708-10.484-75.105-8.793-11.997-19.097-18.069-22.565-19.886L171.7 241.977a2 2 0 1 1-2.828-2.828l93.69-93.69 1.253.553c.568.251 14.056 6.323 25.384 21.779 10.419 14.215 20.809 39.361 11.142 78.431a2.001 2.001 0 0 1-1.94 1.52z" style="fill:#fff" transform="matrix(3.39312 0 0 3.41326 -553.168 -449.375)"/><path d="M278.856 247.742a2 2 0 0 1-1.927-2.54c10.272-36.671.307-68.596-26.657-85.398a2 2 0 0 1 2.115-3.395c28.558 17.795 39.172 51.392 28.394 89.872a2 2 0 0 1-1.925 1.461zM248.264 196.368a9.474 9.474 0 1 1-18.949 0 9.474 9.474 0 0 1 18.949 0z" style="fill:#fff" transform="matrix(3.39312 0 0 3.41326 -553.168 -449.375)"/><path d="M238.79 207.842c-6.327 0-11.474-5.148-11.474-11.474 0-6.327 5.148-11.474 11.474-11.474 6.327 0 11.474 5.147 11.474 11.474.001 6.327-5.147 11.474-11.474 11.474zm0-18.947c-4.121 0-7.474 3.353-7.474 7.474s3.353 7.474 7.474 7.474 7.474-3.353 7.474-7.474c.001-4.122-3.352-7.474-7.474-7.474z" style="fill:#fff" transform="matrix(3.39312 0 0 3.41326 -553.168 -449.375)"/><g transform="matrix(3.39312 0 0 3.41326 -553.168 -449.375)"><circle cx="211.919" cy="231.262" r="9.474" style="fill:green"/><path d="M211.918 242.736c-6.327 0-11.474-5.147-11.474-11.474s5.147-11.474 11.474-11.474 11.474 5.147 11.474 11.474c.001 6.326-5.147 11.474-11.474 11.474zm0-18.948c-4.121 0-7.474 3.352-7.474 7.474 0 4.121 3.353 7.474 7.474 7.474s7.474-3.353 7.474-7.474c.001-4.121-3.352-7.474-7.474-7.474z" style="fill:green"/></g><g style="fill:#002e82;fill-opacity:1" transform="matrix(3.39312 0 0 3.41326 -553.168 -449.375)"><circle cx="262.408" cy="225.221" r="9.474" style="fill:#002e82;fill-opacity:1"/><path d="M262.408 236.695c-6.326 0-11.474-5.147-11.474-11.474s5.147-11.474 11.474-11.474 11.474 5.147 11.474 11.474-5.148 11.474-11.474 11.474zm0-18.947c-4.121 0-7.474 3.352-7.474 7.474 0 4.121 3.352 7.474 7.474 7.474 4.121 0 7.474-3.353 7.474-7.474 0-4.122-3.353-7.474-7.474-7.474z" style="fill:#002e82;fill-opacity:1"/></g><path d="M328.004 357.11c-21.911-5.559-34.61-28.862-27.355-50.195 4.212-12.383 14.615-22.043 27.204-25.26 5.277-1.348 13.314-1.347 18.588.002 11.555 2.955 20.545 10.467 25.772 21.535 2.682 5.678 3.377 9.01 3.377 16.185 0 7.198-.694 10.504-3.416 16.266-4.708 9.97-12.537 16.996-22.987 20.633-3.767 1.31-4.998 1.496-10.823 1.637-5.32.128-7.294-.025-10.36-.803z" style="fill:red;fill-opacity:1;stroke-width:.486855"/></svg>